<?xml version="1.0" encoding="UTF-8"?>
<svg version="1.1" xmlns="http://www.w3.org/2000/svg" width="512" height="512">
<path d="M0 0 C0.9187793 -0.00950684 1.83755859 -0.01901367 2.78417969 -0.02880859 C16.10848015 0.03568694 28.55199615 3.4987317 38.875 12.25 C45.37149486 19.7320742 47.17430005 26.65757594 46.5625 36.375 C46.19065672 40.71156185 45.63693832 44.96491097 44.875 49.25 C45.52984375 49.57871094 46.1846875 49.90742187 46.859375 50.24609375 C68.77614695 61.66881812 86.93474798 79.4611325 94.875 103.25 C99.34013703 118.43775483 97.86614898 134.72879912 90.75 148.8125 C84.02530685 160.56670324 75.28433746 168.8939943 64.875 177.25 C62.83047847 178.91319218 60.79055065 180.58193082 58.75 182.25 C57.88117188 182.95125 57.01234375 183.6525 56.1171875 184.375 C55.37726563 184.99375 54.63734375 185.6125 53.875 186.25 C53.318125 186.71019531 52.76125 187.17039063 52.1875 187.64453125 C50.34976493 189.89247504 49.80421552 192.15833044 49 194.9375 C47.33393863 200.21763296 45.37015468 204.91077736 41.875 209.25 C39.45178632 210.46160684 38.17743486 210.19569291 35.5 210 C33.08724341 209.90638299 33.08724341 209.90638299 30.875 210.25 C28.67995512 212.53536927 28.67995512 212.53536927 26.875 215.25 C24.56395182 216.30047644 22.22916349 217.30007438 19.875 218.25 C18.196702 219.56866272 16.52885233 220.90080468 14.875 222.25 C14.070625 222.4975 13.26625 222.745 12.4375 223 C9.54017041 224.41333151 8.75895594 225.58338721 6.9375 228.1875 C4.31084115 231.86348567 2.33658335 233.911525 -2.125 235.25 C-11.43327539 235.25 -18.39738699 230.28760142 -25.125 224.25 C-31.22161154 238.62233322 -27.45365181 257.20037157 -22.125 271.25 C-21.56871776 272.73947407 -21.01272606 274.22905668 -20.45703125 275.71875 C-20.01746094 276.8840625 -19.57789063 278.049375 -19.125 279.25 C-30.34290806 274.59064315 -38.56480167 259.37331545 -43.12890625 248.71875 C-48.4433578 235.54724656 -48.75620257 221.351748 -43.22998047 208.10449219 C-40.55684566 202.29534209 -37.67474512 196.57461768 -34.125 191.25 C-33.465 191.25 -32.805 191.25 -32.125 191.25 C-31.89425781 192.00023437 -31.66351563 192.75046875 -31.42578125 193.5234375 C-27.00207669 207.40652612 -21.18156773 218.45875269 -9.125 227.25 C-5.67625329 228.49285895 -5.67625329 228.49285895 -2.125 228.25 C0.78087834 225.95232875 2.59818901 223.69084713 4.5625 220.5625 C8.05773112 217.06726888 12.0973687 216.86088034 16.875 216.25 C17.205 214.6 17.535 212.95 17.875 211.25 C20.845 210.92 23.815 210.59 26.875 210.25 C27.205 208.27 27.535 206.29 27.875 204.25 C31.71797855 202.77193133 34.10837109 203.9398682 37.875 205.25 C38.535 204.92 39.195 204.59 39.875 204.25 C40.54608679 201.99726554 40.54608679 201.99726554 40.98828125 199.25390625 C41.18486328 198.21943359 41.38144531 197.18496094 41.58398438 196.11914062 C41.97974171 193.95080025 42.3705427 191.78154814 42.75585938 189.61132812 C45.01748185 177.8087131 49.46302625 168.82874903 58.6875 160.9375 C71.09135003 150.23888736 77.48222575 138.53765627 79.875 122.25 C79.875 120.93 79.875 119.61 79.875 118.25 C78.9159375 119.5184375 78.9159375 119.5184375 77.9375 120.8125 C62.63523088 138.96269143 35.83155072 146.12113144 14.51757812 154.17675781 C3.61324168 158.30505645 -6.88497598 162.6713083 -17.125 168.25 C-18.86523438 169.16652344 -18.86523438 169.16652344 -20.640625 170.1015625 C-41.61833897 181.53112415 -60.55805097 197.40644852 -71.125 219.25 C-70.58230469 219.56453125 -70.03960937 219.8790625 -69.48046875 220.203125 C-61.6085015 224.91212163 -61.6085015 224.91212163 -60.125 228.25 C-59.39631867 233.77756841 -59.75001155 237.66001571 -63.125 242.25 C-64.33581851 245.35540926 -64.33581851 245.35540926 -64.125 249.25 C-62.76375 249.435625 -62.76375 249.435625 -61.375 249.625 C-58.53529677 250.17109677 -56.59909409 250.82263803 -54.125 252.25 C-54.125 252.91 -54.125 253.57 -54.125 254.25 C-53.465 254.25 -52.805 254.25 -52.125 254.25 C-49.19090798 259.88345668 -48.79687209 263.01801517 -50.125 269.25 C-51.1875 271.75 -51.1875 271.75 -52.125 273.25 C-51.2294206 275.37143733 -51.2294206 275.37143733 -49.125 277.25 C-47.08581626 277.60443612 -47.08581626 277.60443612 -44.8125 277.6875 C-39.67627059 278.03883817 -37.65787645 279.54478811 -34.125 283.25 C-32.32250576 286.2051096 -31.87338014 288.36751453 -31.9375 291.8125 C-31.94394531 292.57691406 -31.95039063 293.34132813 -31.95703125 294.12890625 C-32.125 296.25 -32.125 296.25 -33.125 299.25 C-31.475 300.9 -29.825 302.55 -28.125 304.25 C-27.135 303.92 -26.145 303.59 -25.125 303.25 C-19.02010298 302.66299067 -15.994097 303.78545021 -11.125 307.25 C-8.74761165 309.78076824 -8.13499688 311.41026179 -8.09375 314.875 C-8.15595941 316.82422805 -8.21845668 318.77344693 -8.28125 320.72265625 C-8.35099425 323.44256722 -8.35099425 323.44256722 -6.1875 325.75 C-5.506875 326.245 -4.82625 326.74 -4.125 327.25 C-3.795 328.24 -3.465 329.23 -3.125 330.25 C-2.465 329.92 -1.805 329.59 -1.125 329.25 C0.53944461 329.1544069 2.20781963 329.12015355 3.875 329.125 C4.761875 329.12242187 5.64875 329.11984375 6.5625 329.1171875 C8.875 329.25 8.875 329.25 10.875 330.25 C10.9575 329.63125 11.04 329.0125 11.125 328.375 C11.875 326.25 11.875 326.25 13.9375 325 C14.576875 324.7525 15.21625 324.505 15.875 324.25 C15.5346875 322.4865625 15.5346875 322.4865625 15.1875 320.6875 C14.63183114 316.13745788 15.55897169 313.26444907 17.875 309.25 C21.61932394 305.69289226 24.22597578 304.3078605 29.4375 304.125 C32.875 304.25 32.875 304.25 34.875 305.25 C36.83466166 300.71828242 36.9593581 297.74293911 36.1875 292.9375 C35.68400857 288.50677538 36.33077267 286.022475 38.875 282.25 C41.35011196 279.29583411 43.01583524 277.67879608 46.875 277.25 C47.51050781 277.29125 48.14601563 277.3325 48.80078125 277.375 C51.23793729 277.56100679 51.23793729 277.56100679 54.875 277.25 C56.90329372 274.84140121 57.875 273.41955691 57.875 270.25 C57.545 269.59 57.215 268.93 56.875 268.25 C55.68520773 256.89598235 55.68520773 256.89598235 59 252.625 C63.77130631 248.68348609 67.77708925 247.9596233 73.875 248.25 C75.17559064 245.51814404 75.17559064 245.51814404 75.875 242.25 C74.93488318 240.54883624 73.92604383 238.88495707 72.875 237.25 C71.49439015 231.63551994 71.60551604 228.08940054 74.421875 222.9921875 C76.56813561 220.41898257 79.11879921 219.52364744 82.15234375 218.2421875 C84.21694539 217.28549476 84.21694539 217.28549476 85.125 214.25 C85.15566384 211.1489876 85.15566384 211.1489876 83 209 C82.29875 208.4225 81.5975 207.845 80.875 207.25 C79.26539759 204.03079518 79.41341874 200.74111461 79.875 197.25 C81.66951031 193.59195976 83.26622948 191.68888108 86.5625 189.3125 C90.94006405 187.90837568 94.47171985 187.89576835 98.875 189.25 C102.16745389 191.92511878 104.60635119 194.11616086 105.1484375 198.421875 C105.45638863 206.23909607 105.45638863 206.23909607 102.5625 209.75 C99.875 212.25 99.875 212.25 96.875 214.25 C95.19195644 216.96511048 95.19195644 216.96511048 94.875 220.25 C96.97157737 223.00689428 96.97157737 223.00689428 98.61328125 224.6875 C100.81327785 227.41195399 100.875 229.83308017 100.875 233.25 C99.29611257 238.42524212 97.50449094 241.40917602 92.875 244.25 C90.54879624 245.09633193 88.29324921 245.68100019 85.875 246.25 C85.75125 246.9925 85.6275 247.735 85.5 248.5 C84.875 251.25 84.875 251.25 83.6875 253.3125 C83.419375 253.951875 83.15125 254.59125 82.875 255.25 C83.52308564 256.59246312 84.19322584 257.92432801 84.875 259.25 C85.43384224 264.18643978 84.83624134 267.54689521 82.20703125 271.671875 C79.76796218 274.56156387 77.36275324 275.74665808 73.875 277.25 C72.8025 277.229375 71.73 277.20875 70.625 277.1875 C69.26375 277.2184375 69.26375 277.2184375 67.875 277.25 C66.06712694 279.62402417 66.06712694 279.62402417 64.875 282.25 C64.215 282.58 63.555 282.91 62.875 283.25 C63.225625 283.889375 63.57625 284.52875 63.9375 285.1875 C65.23703759 289.43265612 65.0560005 292.97733577 63.875 297.25 C61.82894989 300.7364103 59.24100762 303.00599492 55.875 305.25 C53.39453125 305.4453125 53.39453125 305.4453125 50.6875 305.375 C49.78644531 305.35695313 48.88539063 305.33890625 47.95703125 305.3203125 C46.92642578 305.28550781 46.92642578 305.28550781 45.875 305.25 C45.771875 305.86875 45.66875 306.4875 45.5625 307.125 C44.875 309.25 44.875 309.25 41.875 311.25 C42.205 311.765625 42.535 312.28125 42.875 312.8125 C44.52695017 316.83912854 44.67753448 320.30098769 43 324.375 C40.90168142 328.12988588 39.22368256 330.03691621 35.5 332.3125 C31.49039332 333.34946725 28.89550659 333.10049178 24.875 332.25 C21.72307677 331.96202323 21.72307677 331.96202323 19.125 334.1875 C16.66297632 336.90205851 16.66297632 336.90205851 16.8828125 339.375 C17.13001399 340.93184344 17.39070498 342.48659809 17.6640625 344.0390625 C18.06987298 348.29255748 15.72123789 351.18436711 13.1875 354.375 C11.49269177 356.41469975 11.49269177 356.41469975 11.875 360.25 C12.74125 360.270625 13.6075 360.29125 14.5 360.3125 C19.22874601 361.62604056 21.39547087 364.08535399 23.875 368.25 C25.1628216 371.73188804 25.43804357 374.6394335 24.203125 378.171875 C22.14105678 382.12698946 19.56234669 384.68934258 15.875 387.25 C16.08125 388.013125 16.2875 388.77625 16.5 389.5625 C16.875 392.25 16.875 392.25 14.875 395.25 C15.535 395.91 16.195 396.57 16.875 397.25 C16.5 400.375 16.5 400.375 15.875 403.25 C15.215 403.25 14.555 403.25 13.875 403.25 C15.050625 404.7040625 15.050625 404.7040625 16.25 406.1875 C16.69085938 406.73277344 17.13171875 407.27804687 17.5859375 407.83984375 C18.8416391 409.38266437 18.8416391 409.38266437 20.875 410.25 C20.17385571 415.43029908 19.29420353 420.55351936 18.3125 425.6875 C18.10463867 426.78481445 18.10463867 426.78481445 17.89257812 427.90429688 C17.5547819 429.68646318 17.21509012 431.46827002 16.875 433.25 C18.60530291 432.96515154 20.33420714 432.67180062 22.0625 432.375 C23.50689453 432.13136719 23.50689453 432.13136719 24.98046875 431.8828125 C27.78539635 431.26958946 30.22397894 430.33055435 32.875 429.25 C36.75005924 429.4921912 38.99557422 431.8135628 41.875 434.25 C42.865 434.91 43.855 435.57 44.875 436.25 C44.875 437.24 44.875 438.23 44.875 439.25 C43.946875 439.6625 43.01875 440.075 42.0625 440.5 C38.99445319 442.18441786 37.68459535 443.33454083 35.875 446.25 C32.00059792 445.31942768 28.21572096 444.1451224 24.41015625 442.96875 C21.91206474 442.26050834 19.4225689 441.74511713 16.875 441.25 C17.12867294 445.77193644 17.40264322 450.29243605 17.6875 454.8125 C17.72835724 455.47660889 17.76921448 456.14071777 17.81130981 456.82495117 C18.3680539 465.67157838 19.25381666 473.99969822 21.77734375 482.5 C21.875 485.25 21.875 485.25 19.5546875 487.91796875 C18.67039062 488.68753906 17.78609375 489.45710938 16.875 490.25 C15.08179176 493.41645474 15.08179176 493.41645474 13.875 496.25 C12.0625 496.125 12.0625 496.125 9.875 495.25 C8.84067096 493.26753602 7.84261608 491.26586684 6.875 489.25 C6.1325 488.816875 5.39 488.38375 4.625 487.9375 C4.0475 487.380625 3.47 486.82375 2.875 486.25 C2.87011719 484.43286133 2.87011719 484.43286133 3.171875 482.20703125 C3.27918945 481.3972583 3.38650391 480.58748535 3.49707031 479.75317383 C3.96040985 476.68429767 4.45485465 473.62273754 4.97924805 470.5637207 C6.64993123 460.79625341 7.50750566 451.14700267 7.875 441.25 C5.97727809 441.50726693 4.08184323 441.78143339 2.1875 442.0625 C1.13175781 442.21332031 0.07601562 442.36414063 -1.01171875 442.51953125 C-4.23022348 443.27468857 -6.34305646 444.5185806 -9.125 446.25 C-12.65021745 445.28857706 -14.59857457 442.77642543 -17.125 440.25 C-19.25809192 439.01487921 -19.25809192 439.01487921 -21.125 438.25 C-19.78290834 434.22372501 -17.63798199 433.49830847 -14.125 431.25 C-13.58875 430.651875 -13.0525 430.05375 -12.5 429.4375 C-12.04625 429.045625 -11.5925 428.65375 -11.125 428.25 C-8.3614384 428.74767529 -5.84811948 429.70657852 -3.25 430.75 C0.10185821 432.03676205 3.29834252 432.80291782 6.875 433.25 C7.09044006 428.01884607 6.39870193 423.81214697 4.875 418.8125 C4.50375 417.57628906 4.1325 416.34007812 3.75 415.06640625 C3.46125 414.13699219 3.1725 413.20757812 2.875 412.25 C5.20833333 409.91666667 7.54166667 407.58333333 9.875 405.25 C9.359375 404.693125 8.84375 404.13625 8.3125 403.5625 C6.875 401.25 6.875 401.25 7.1875 398.6875 C7.5278125 397.4809375 7.5278125 397.4809375 7.875 396.25 C7.875 393.40321219 7.44419095 391.02480587 6.875 388.25 C6.875 387.59 6.875 386.93 6.875 386.25 C5.16559971 384.64771617 3.34198472 383.23705258 1.50390625 381.78515625 C-1.15115428 379.28290496 -1.14435049 377.01392397 -1.4375 373.4375 C-1.40547358 369.08991407 0.18864649 366.66899538 2.875 363.25 C4.1731424 361.0263932 4.1731424 361.0263932 3.875 357.25 C2.823125 357.1675 1.77125 357.085 0.6875 357 C-3.47083134 356.1819676 -5.16234506 355.21265494 -8.125 352.25 C-10.05782586 349.12929158 -10.37234824 346.77030168 -10.3125 343.125 C-10.30283203 341.82175781 -10.30283203 341.82175781 -10.29296875 340.4921875 C-10.125 338.25 -10.125 338.25 -9.125 336.25 C-10.300625 335.569375 -10.300625 335.569375 -11.5 334.875 C-14.125 333.25 -14.125 333.25 -16.125 331.25 C-18.09506164 331.54550925 -20.06512075 331.8410353 -22.03515625 332.13671875 C-26.69321909 332.38921188 -29.6279241 329.69184525 -32.9375 326.75 C-36.06167059 323.17951932 -36.190226 320.85473759 -35.9375 316.3125 C-35.8357392 312.19056593 -35.8357392 312.19056593 -38.0625 308.75 C-38.743125 308.255 -39.42375 307.76 -40.125 307.25 C-40.455 306.59 -40.785 305.93 -41.125 305.25 C-42.6409375 305.5903125 -42.6409375 305.5903125 -44.1875 305.9375 C-48.85280173 306.30776204 -51.07646397 305.54162417 -55.125 303.25 C-58.63445787 299.46347967 -60.26702449 296.99937108 -60.25 291.875 C-60.25386719 290.71871094 -60.25386719 290.71871094 -60.2578125 289.5390625 C-60.125 287.25 -60.125 287.25 -59.52734375 285.09375 C-59.39457031 284.4853125 -59.26179688 283.876875 -59.125 283.25 C-60.5166876 281.11655232 -60.5166876 281.11655232 -62.125 279.25 C-62.125 278.59 -62.125 277.93 -62.125 277.25 C-62.99125 277.3325 -63.8575 277.415 -64.75 277.5 C-69.60854408 277.14010785 -72.51784363 274.99773506 -75.77734375 271.453125 C-77.45344546 268.71306307 -77.52632245 266.94379053 -77.5 263.75 C-77.50773437 262.8115625 -77.51546875 261.873125 -77.5234375 260.90625 C-77.06467417 257.84782783 -75.95930641 256.66951408 -74.125 254.25 C-73.97402195 252.10330075 -73.97402195 252.10330075 -74.4375 250 C-74.664375 248.7625 -74.89125 247.525 -75.125 246.25 C-76.775 245.92 -78.425 245.59 -80.125 245.25 C-80.0907374 267.12111737 -80.0907374 267.12111737 -75.125 288.25 C-74.84914063 289.1265625 -74.57328125 290.003125 -74.2890625 290.90625 C-70.64042805 301.48394254 -63.28745291 310.76151109 -55.125 318.25 C-52.67081716 320.68035582 -50.24102022 323.13041602 -47.8359375 325.609375 C-43.77601 329.76435097 -39.70415599 333.67121347 -35.125 337.25 C-29.71648511 341.59073942 -24.75474492 346.32516203 -19.8125 351.1875 C-19.04744141 351.92677734 -18.28238281 352.66605469 -17.49414062 353.42773438 C-10.29178882 360.6048811 -5.1464086 368.51435006 -2.125 378.25 C-2.125 379.57 -2.125 380.89 -2.125 382.25 C-2.785 382.25 -3.445 382.25 -4.125 382.25 C-4.30933594 381.65574219 -4.49367187 381.06148438 -4.68359375 380.44921875 C-12.19807097 358.97451275 -34.56262804 346.73831935 -52.4074707 334.61889648 C-80.62781204 315.44418891 -108.31760821 296.45402835 -116.4375 261.0625 C-120.1030367 239.3159986 -111.83166443 217.45296666 -99.44140625 199.859375 C-97.7294125 197.59780358 -95.95663597 195.41570794 -94.125 193.25 C-93.45855469 192.46109375 -92.79210937 191.6721875 -92.10546875 190.859375 C-86.2364569 184.13380466 -79.78162495 178.17450884 -73.125 172.25 C-72.795 173.24 -72.465 174.23 -72.125 175.25 C-73.05859375 176.94921875 -73.05859375 176.94921875 -74.5625 178.9375 C-78.86186672 185.07086232 -82.0587317 191.68958061 -85.26464844 198.43896484 C-85.95820862 199.89890509 -86.66798058 201.35113764 -87.3828125 202.80078125 C-94.61613591 218.83369889 -95.88766761 238.06755514 -93.125 255.25 C-93.03863281 254.08726562 -92.95226562 252.92453125 -92.86328125 251.7265625 C-90.07742793 218.42965068 -75.41675818 189.86877413 -50.17578125 167.76953125 C-17.74966091 140.98995683 20.87031157 122.30686716 58.13525391 103.29052734 C58.86236069 102.91887451 59.58946747 102.54722168 60.33860779 102.16430664 C61.69481745 101.47138185 63.05174343 100.77985629 64.40956116 100.09008789 C67.56564873 98.4773249 70.65798248 96.80624893 73.71411133 95.01025391 C76.875 93.25 76.875 93.25 78.875 93.25 C78.54661175 85.36868209 74.89804192 81.12624778 69.30078125 75.80078125 C60.14052565 67.8146038 50.1107264 61.90663185 38.875 57.25 C38.64039063 57.96027344 38.40578125 58.67054687 38.1640625 59.40234375 C29.3811457 78.80460541 1.68400908 92.81448264 -17.125 100.25 C-27.5648022 104.15071041 -37.98410123 107.94564112 -49.26953125 106.765625 C-59.20546302 105.58577981 -59.20546302 105.58577981 -68.34326172 108.73242188 C-72.48386362 112.68973961 -75.63907148 117.31819314 -78.72753906 122.11767578 C-80.56232039 124.91728796 -82.6506975 127.44755599 -84.8125 130 C-85.85277344 131.27423828 -85.85277344 131.27423828 -86.9140625 132.57421875 C-89.47799937 135.67721655 -92.08069125 138.74553554 -94.6875 141.8125 C-120.12786543 171.83169596 -139.87649804 200.86741921 -141.125 241.25 C-141.785 241.25 -142.445 241.25 -143.125 241.25 C-149.88826894 220.35632989 -145.32615559 199.77840013 -135.55078125 180.63671875 C-128.05313262 166.71070104 -118.63142041 153.85420807 -109.125 141.25 C-108.18303244 139.99130529 -107.24163628 138.73218278 -106.30078125 137.47265625 C-101.90858081 131.59991394 -97.49871472 125.7409787 -93.06640625 119.8984375 C-92.38094727 118.99182373 -91.69548828 118.08520996 -90.98925781 117.15112305 C-89.64166794 115.36882159 -88.29085289 113.58895319 -86.93652344 111.81176758 C-86.32454102 111.00118896 -85.71255859 110.19061035 -85.08203125 109.35546875 C-84.53522705 108.63512451 -83.98842285 107.91478027 -83.42504883 107.17260742 C-81.95209677 105.18036503 -81.95209677 105.18036503 -81.125 102.25 C-81.69347656 101.89808594 -82.26195312 101.54617187 -82.84765625 101.18359375 C-91.82841115 95.44130806 -97.86579366 90.25991337 -100.8125 79.8125 C-102.40395812 66.76254338 -97.64387306 54.94367263 -89.75 44.625 C-88.55127999 43.15875449 -87.34313272 41.700158 -86.125 40.25 C-85.59132812 39.58226562 -85.05765625 38.91453125 -84.5078125 38.2265625 C-68.31657785 18.62664687 -39.81187989 3.95457175 -14.5859375 0.4921875 C-9.72322324 0.15190727 -4.87377377 0.04127573 0 0 Z M-71.125 31.25 C-72.176875 32.03375 -73.22875 32.8175 -74.3125 33.625 C-85.32122022 43.89980554 -94.62658472 57.31009772 -95.5 72.6875 C-95.29449548 78.98242802 -93.3103027 83.9163373 -88.99609375 88.5234375 C-83.16907502 94.17979308 -83.16907502 94.17979308 -75.6796875 96.25390625 C-72.06379066 94.83298043 -70.4295003 92.25036933 -68.25 89.1875 C-52.67203427 68.45012496 -30.97935661 46.01966515 -4.16894531 41.51513672 C8.83822168 39.82787163 20.39126907 41.59300117 32.875 45.25 C34.53720218 45.60492646 36.20238771 45.94791223 37.875 46.25 C41.60188285 38.54777544 41.55146788 30.27940363 38.875 22.25 C35.5343646 15.55573062 29.8982811 11.33264516 23.0625 8.5625 C15.0626777 5.90806422 7.15573343 4.88208976 -1.25 4.9375 C-2.61741333 4.94595947 -2.61741333 4.94595947 -4.01245117 4.95458984 C-29.15489398 5.39927713 -51.74354435 15.70257062 -71.125 31.25 Z M-49.125 83.25 C-49.89457031 84.16652344 -50.66414063 85.08304688 -51.45703125 86.02734375 C-55.00781363 90.30090251 -58.36941434 94.41028468 -61.125 99.25 C-59.37149769 101.00350231 -57.0111627 100.46456194 -54.625 100.5 C-23.74833468 100.16328609 5.34811739 85.89765053 26.875 64.25 C29.3592019 61.34687704 31.68158763 58.37792961 33.875 55.25 C28.55330477 49.92830477 18.21740863 48.96582397 10.9375 48.75 C-13.44429043 49.57001537 -34.04406961 65.07068139 -49.125 83.25 Z M75.875 104.25 C25.05925328 124.14055164 25.05925328 124.14055164 -15.125 156.25 C-8.05790011 154.25586078 -1.25336386 151.84979973 5.5625 149.125 C7.58705919 148.32116008 9.61180432 147.51778837 11.63671875 146.71484375 C12.66587402 146.3060498 13.6950293 145.89725586 14.75537109 145.47607422 C17.81403229 144.27396148 20.88265918 143.1026811 23.95703125 141.94140625 C44.68598778 134.08080661 64.63659027 125.698349 76.875 106.25 C76.38 105.26 76.38 105.26 75.875 104.25 Z " fill="#020202" transform="translate(259.125,7.75)"/>
<path d="M0 0 C0.99 0.495 0.99 0.495 2 1 C-3.1016854 6.19577386 -8.22059382 11.29104015 -13.74609375 16.03515625 C-26.1123266 26.8154251 -37.85644875 38.0743163 -48 51 C-48.41813965 51.52529297 -48.8362793 52.05058594 -49.26708984 52.59179688 C-64.71137069 71.99955212 -75.45448755 93.57387479 -73 119 C-70.60869771 133.84412178 -63.68906857 147.22276271 -54.46875 158.9609375 C-53 161 -53 161 -53 163 C-56.3287521 161.89041597 -57.01489699 161.07455496 -59.1875 158.4375 C-61.61641938 155.55029395 -64.10563899 152.93430968 -66.875 150.375 C-78.19649022 139.16342716 -87.01874622 122.1602732 -87.38085938 106.06591797 C-87.32538699 86.50728028 -80.95143041 69.82525439 -68 55 C-67.31164062 54.20335937 -66.62328125 53.40671875 -65.9140625 52.5859375 C-63.64840511 50.01819246 -61.33897583 47.50108306 -59 45 C-58.23945313 44.1853125 -57.47890625 43.370625 -56.6953125 42.53125 C-50.00683569 35.60154943 -42.67499777 29.77550677 -35 24 C-34.40026367 23.5447998 -33.80052734 23.08959961 -33.18261719 22.62060547 C-23.9642102 15.64109614 -14.43193825 9.24439416 -4.66308594 3.06225586 C-3.09592292 2.06126844 -1.5472502 1.03150013 0 0 Z " fill="#020202" transform="translate(208,145)"/>
<path d="M0 0 C2.8093331 1.29893896 4.5418442 2.4726726 6.9375 4.5625 C9.86927665 6.89595488 11.28561877 8 15 8 C16.7087646 6.62485459 16.7087646 6.62485459 18 5 C18.66 5 19.32 5 20 5 C19.47731534 7.76276177 18.89130413 10.3260876 18 13 C12.96236593 13.62970426 9.93141979 12.36700702 5.8359375 9.64453125 C2.75832325 6.88777466 1.54442794 3.79671869 0 0 Z " fill="#060606" transform="translate(274,174)"/>
<path d="M0 0 C7.97564439 -0.30545021 16.08182482 -0.39888277 23.0625 3.875 C25.00666252 6.00730728 25.69607391 7.16335653 26 10 C25.01 10 24.02 10 23 10 C22.4225 9.38125 21.845 8.7625 21.25 8.125 C15.7128185 2.89543969 7.20244537 3.44941367 0 3 C0 2.01 0 1.02 0 0 Z " fill="#050505" transform="translate(279,161)"/>
<path d="M0 0 C4.58660699 5.06108357 7 10.17508752 7 17 C6.34 17 5.68 17 5 17 C4.75765625 16.34773438 4.5153125 15.69546875 4.265625 15.0234375 C2.29623259 9.88786806 0.2646313 5.43057105 -3 1 C-2.01 0.67 -1.02 0.34 0 0 Z " fill="#080808" transform="translate(250,373)"/>
<path d="M0 0 C3.81538462 2.46153846 3.81538462 2.46153846 4.75 5.1875 C4.8325 5.785625 4.915 6.38375 5 7 C4.01 7 3.02 7 2 7 C0.25 5.1875 0.25 5.1875 -1 3 C-0.67 2.01 -0.34 1.02 0 0 Z " fill="#0A0A0A" transform="translate(300,164)"/>
</svg>
